<?xml version="1.0" encoding="iso-8859-1"?>
<!-- Generator: Adobe Illustrator 19.0.0, SVG Export Plug-In . SVG Version: 6.00 Build 0)  -->
<svg version="1.1" id="Capa_1" xmlns="http://www.w3.org/2000/svg" xmlns:xlink="http://www.w3.org/1999/xlink" x="0px" y="0px"
	 viewBox="0 0 512 512" style="enable-background:new 0 0 512 512;" xml:space="preserve">
<path style="fill:#ECF0F1;" d="M483.31,512H28.69C12.844,512,0,499.156,0,483.31V105.931h512V483.31
	C512,499.156,499.156,512,483.31,512z"/>
<path style="fill:#687492;" d="M512,105.931H0V28.69C0,12.844,12.844,0,28.69,0H483.31C499.156,0,512,12.844,512,28.69V105.931z"/>
<rect x="35.31" y="35.31" style="fill:#E64C3C;" width="35.31" height="35.31"/>
<rect x="105.931" y="35.31" style="fill:#F0C419;" width="35.31" height="35.31"/>
<rect x="176.552" y="35.31" style="fill:#24AE5F;" width="35.31" height="35.31"/>
<path style="fill:#4482C3;" d="M317.793,273.655H194.207c-9.754,0-17.655-7.901-17.655-17.655l0,0
	c0-9.754,7.901-17.655,17.655-17.655h123.586c9.754,0,17.655,7.901,17.655,17.655l0,0
	C335.448,265.754,327.548,273.655,317.793,273.655z"/>
<g>
	<path style="fill:#E64C3C;" d="M344.276,167.724H167.724c-4.873,0-8.828-3.946-8.828-8.828c0-4.882,3.955-8.828,8.828-8.828
		h176.552c4.873,0,8.828,3.946,8.828,8.828C353.103,163.778,349.149,167.724,344.276,167.724z"/>
	<path style="fill:#E64C3C;" d="M388.414,203.034H123.586c-4.873,0-8.828-3.946-8.828-8.828s3.955-8.828,8.828-8.828h264.828
		c4.873,0,8.828,3.946,8.828,8.828S393.287,203.034,388.414,203.034z"/>
</g>
<g>
	<path style="fill:#BDC3C7;" d="M123.586,441.379H44.138c-4.873,0-8.828-3.946-8.828-8.828c0-4.882,3.955-8.828,8.828-8.828h79.448
		c4.873,0,8.828,3.946,8.828,8.828C132.414,437.433,128.459,441.379,123.586,441.379z"/>
	<path style="fill:#BDC3C7;" d="M97.103,476.69H44.138c-4.873,0-8.828-3.946-8.828-8.828c0-4.882,3.955-8.828,8.828-8.828h52.966
		c4.873,0,8.828,3.946,8.828,8.828C105.931,472.744,101.976,476.69,97.103,476.69z"/>
	<path style="fill:#BDC3C7;" d="M123.586,406.069H44.138c-4.873,0-8.828-3.946-8.828-8.828c0-4.882,3.955-8.828,8.828-8.828h79.448
		c4.873,0,8.828,3.946,8.828,8.828C132.414,402.123,128.459,406.069,123.586,406.069z"/>
	<path style="fill:#BDC3C7;" d="M123.586,370.759H44.138c-4.873,0-8.828-3.946-8.828-8.828c0-4.882,3.955-8.828,8.828-8.828h79.448
		c4.873,0,8.828,3.946,8.828,8.828C132.414,366.813,128.459,370.759,123.586,370.759z"/>
	<path style="fill:#BDC3C7;" d="M238.345,441.379h-79.448c-4.873,0-8.828-3.946-8.828-8.828c0-4.882,3.955-8.828,8.828-8.828h79.448
		c4.873,0,8.828,3.946,8.828,8.828C247.172,437.433,243.218,441.379,238.345,441.379z"/>
	<path style="fill:#BDC3C7;" d="M211.862,476.69h-52.966c-4.873,0-8.828-3.946-8.828-8.828c0-4.882,3.955-8.828,8.828-8.828h52.966
		c4.873,0,8.828,3.946,8.828,8.828C220.69,472.744,216.735,476.69,211.862,476.69z"/>
	<path style="fill:#BDC3C7;" d="M238.345,406.069h-79.448c-4.873,0-8.828-3.946-8.828-8.828c0-4.882,3.955-8.828,8.828-8.828h79.448
		c4.873,0,8.828,3.946,8.828,8.828C247.172,402.123,243.218,406.069,238.345,406.069z"/>
	<path style="fill:#BDC3C7;" d="M238.345,370.759h-79.448c-4.873,0-8.828-3.946-8.828-8.828c0-4.882,3.955-8.828,8.828-8.828h79.448
		c4.873,0,8.828,3.946,8.828,8.828C247.172,366.813,243.218,370.759,238.345,370.759z"/>
	<path style="fill:#BDC3C7;" d="M353.103,441.379h-79.448c-4.873,0-8.828-3.946-8.828-8.828c0-4.882,3.955-8.828,8.828-8.828h79.448
		c4.873,0,8.828,3.946,8.828,8.828C361.931,437.433,357.976,441.379,353.103,441.379z"/>
	<path style="fill:#BDC3C7;" d="M326.621,476.69h-52.966c-4.873,0-8.828-3.946-8.828-8.828c0-4.882,3.955-8.828,8.828-8.828h52.966
		c4.873,0,8.828,3.946,8.828,8.828C335.448,472.744,331.493,476.69,326.621,476.69z"/>
	<path style="fill:#BDC3C7;" d="M353.103,406.069h-79.448c-4.873,0-8.828-3.946-8.828-8.828c0-4.882,3.955-8.828,8.828-8.828h79.448
		c4.873,0,8.828,3.946,8.828,8.828C361.931,402.123,357.976,406.069,353.103,406.069z"/>
	<path style="fill:#BDC3C7;" d="M353.103,370.759h-79.448c-4.873,0-8.828-3.946-8.828-8.828c0-4.882,3.955-8.828,8.828-8.828h79.448
		c4.873,0,8.828,3.946,8.828,8.828C361.931,366.813,357.976,370.759,353.103,370.759z"/>
	<path style="fill:#BDC3C7;" d="M467.862,441.379h-79.448c-4.873,0-8.828-3.946-8.828-8.828c0-4.882,3.955-8.828,8.828-8.828h79.448
		c4.873,0,8.828,3.946,8.828,8.828C476.69,437.433,472.735,441.379,467.862,441.379z"/>
	<path style="fill:#BDC3C7;" d="M441.379,476.69h-52.966c-4.873,0-8.828-3.946-8.828-8.828c0-4.882,3.955-8.828,8.828-8.828h52.966
		c4.873,0,8.828,3.946,8.828,8.828C450.207,472.744,446.252,476.69,441.379,476.69z"/>
	<path style="fill:#BDC3C7;" d="M467.862,406.069h-79.448c-4.873,0-8.828-3.946-8.828-8.828c0-4.882,3.955-8.828,8.828-8.828h79.448
		c4.873,0,8.828,3.946,8.828,8.828C476.69,402.123,472.735,406.069,467.862,406.069z"/>
	<path style="fill:#BDC3C7;" d="M467.862,370.759h-79.448c-4.873,0-8.828-3.946-8.828-8.828c0-4.882,3.955-8.828,8.828-8.828h79.448
		c4.873,0,8.828,3.946,8.828,8.828C476.69,366.813,472.735,370.759,467.862,370.759z"/>
	<path style="fill:#BDC3C7;" d="M123.586,335.448H44.138c-4.873,0-8.828-3.946-8.828-8.828c0-4.882,3.955-8.828,8.828-8.828h79.448
		c4.873,0,8.828,3.946,8.828,8.828C132.414,331.502,128.459,335.448,123.586,335.448z"/>
	<path style="fill:#BDC3C7;" d="M238.345,335.448h-79.448c-4.873,0-8.828-3.946-8.828-8.828c0-4.882,3.955-8.828,8.828-8.828h79.448
		c4.873,0,8.828,3.946,8.828,8.828C247.172,331.502,243.218,335.448,238.345,335.448z"/>
	<path style="fill:#BDC3C7;" d="M353.103,335.448h-79.448c-4.873,0-8.828-3.946-8.828-8.828c0-4.882,3.955-8.828,8.828-8.828h79.448
		c4.873,0,8.828,3.946,8.828,8.828C361.931,331.502,357.976,335.448,353.103,335.448z"/>
	<path style="fill:#BDC3C7;" d="M467.862,335.448h-79.448c-4.873,0-8.828-3.946-8.828-8.828c0-4.882,3.955-8.828,8.828-8.828h79.448
		c4.873,0,8.828,3.946,8.828,8.828C476.69,331.502,472.735,335.448,467.862,335.448z"/>
</g>
<g>
</g>
<g>
</g>
<g>
</g>
<g>
</g>
<g>
</g>
<g>
</g>
<g>
</g>
<g>
</g>
<g>
</g>
<g>
</g>
<g>
</g>
<g>
</g>
<g>
</g>
<g>
</g>
<g>
</g>
</svg>
