<svg id="Capa_1" enable-background="new 0 0 509.06 509.06" height="512" viewBox="0 0 509.06 509.06" width="512" xmlns="http://www.w3.org/2000/svg"><g><path d="m449.53 32.88v174.24c0 18.16-14.72 32.88-32.88 32.88h-117.12l-45 50-12.584-165.47 12.584-124.53h162.12c18.16 0 32.88 14.72 32.88 32.88z" fill="#5f55ae"/><path d="m254.53 0v290l-45-50h-117.12c-18.16 0-32.88-14.72-32.88-32.88v-174.24c0-18.16 14.72-32.88 32.88-32.88z" fill="#6e76e4"/><path d="m344.53 380.18c0 37.61-17.47 73.08-47.27 96.01l-42.73 32.87-7.08-81.589 7.08-56.871 7.89-13.16c3.99-6.66 9.59-12.02 16.13-15.72s14.02-5.74 21.78-5.74c12.2 0 23.26 4.95 31.25 12.95 8 7.99 12.95 19.05 12.95 31.25z" fill="#e40058"/><path d="m254.53 370.6v138.46l-42.73-32.87c-14.9-11.47-26.72-26.07-34.81-42.5s-12.46-34.71-12.46-53.51c0-12.2 4.95-23.26 12.95-31.25 7.99-8 19.05-12.95 31.25-12.95 15.53 0 29.92 8.15 37.91 21.46z" fill="#ff6379"/><g><path d="m406.1 155.71-20.83 21.59-30.74-29.66v23.45h-30v-109.11h30v20.73l28.6-25.92 20.14 22.22-39.53 35.83z" fill="#b2d7f3"/><path d="m294.54 98.53v40c0 17.25-10.98 31.99-26.33 37.59-4.27 1.56-8.88 2.41-13.68 2.41l-7.238-13.752 7.238-16.248c5.52 0 10.01-4.49 10.01-10v-40c0-5.51-4.49-10-10.01-10l-7.238-15.356 7.238-14.644c4.8 0 9.41.85 13.68 2.41 15.35 5.6 26.33 20.34 26.33 37.59z" fill="#b2d7f3"/><g fill="#d6e9f8"><path d="m134.525 88.53h19.238v90h30v-120h-49.238z"/><path d="m254.53 88.53v-30c-22.06 0-40 17.95-40 40v40c0 22.05 17.94 40 40 40v-30c-5.52 0-10-4.49-10-10v-40c0-5.51 4.48-10 10-10z"/></g></g></g></svg>