<svg id="Capa_1" enable-background="new 0 0 512 512" height="512" viewBox="0 0 512 512" width="512" xmlns="http://www.w3.org/2000/svg"><g><g><path d="m512 338.381v-262.645c0-11.96-9.696-21.656-21.656-21.656h-468.688c-11.96 0-21.656 9.696-21.656 21.656v262.645l264.438 9z" fill="#ffe07d"/><path d="m0 356.961 256.518 9 255.482-9v-18.58h-512z" fill="#ffd064"/><path d="m108.514 277.605h294.972c14.318 0 15.484-15.932 15.484-24.484v-105.41c0-8.552-6.932-15.484-15.484-15.484h-294.972c-8.551 0-15.484 6.932-15.484 15.484v105.41c0 8.552 1.168 24.484 15.484 24.484z" fill="#de5974"/><path d="m21.068 448.34h469.865c17.657 0 21.068-18.432 21.068-30.067v-61.311h-512.001v61.311c0 11.634 0 30.067 21.068 30.067z" fill="#6e9ff0"/><path d="m454.27 415.183h-229.329c-4.276 0-7.742-3.466-7.742-7.742s3.466-7.742 7.742-7.742h229.329c4.276 0 7.742 3.466 7.742 7.742s-3.466 7.742-7.742 7.742z" fill="#fff"/><path d="m195.929 415.183h-138.199c-4.276 0-7.742-3.466-7.742-7.742s3.466-7.742 7.742-7.742h138.199c4.276 0 7.742 3.466 7.742 7.742s-3.466 7.742-7.742 7.742z" fill="#b3e59f"/><path d="m188.521 398.151c0 17.059 12.068 23.507 21.914 23.507s21.914-6.963 21.914-23.507c-3.619-8.526-12.068-14.507-21.914-14.507s-18.295 5.981-21.914 14.507z" fill="#de5974"/><path d="m490.932 439.34h-469.865c-11.635 0-21.067-9.433-21.067-21.068v18.581c0 11.635 9.432 21.067 21.067 21.067h469.865c11.635 0 21.068-9.432 21.068-21.067v-18.581c0 11.635-9.432 21.068-21.068 21.068z" fill="#5b90dc"/><g fill="#c7495d"><path d="m210.435 412.657c-9.846 0-18.295-5.98-21.914-14.507-1.212 2.854-1.883 5.994-1.883 9.29 0 13.143 10.654 23.797 23.797 23.797s23.797-10.654 23.797-23.797c0-3.296-.671-6.436-1.883-9.29-3.619 8.527-12.068 14.507-21.914 14.507z"/><path d="m403.486 268.605h-294.972c-8.551 0-15.484-6.932-15.484-15.484v18.581c0 8.552 6.932 15.484 15.484 15.484h294.972c8.552 0 15.484-6.932 15.484-15.484v-18.581c0 8.552-6.932 15.484-15.484 15.484z"/></g></g><g fill="#fff"><path d="m183.013 167.238c-1.486-3.613-4.968-5.946-8.874-5.946-.003 0-.006 0-.009 0-3.909.004-7.392 2.343-8.873 5.962-.024.058-.047.118-.07.177l-30.465 79.99c-3.705 9.329 10.994 15.009 14.498 5.522l5.685-14.926h38.24l5.624 14.904c3.417 9.47 18.207 3.885 14.515-5.477l-30.188-79.993c-.026-.072-.055-.142-.083-.213zm-22.199 55.265 13.299-34.919 13.178 34.919z"/><path d="m229.639 248.903c-.208 4.589 3.07 9.168 7.946 9.036.673-.003 16.559-.064 22.897-.175 22.461-.393 38.764-20.138 38.764-46.949 0-28.186-15.895-47.123-39.552-47.123h-22.299c-2.06 0-4.035.819-5.49 2.277-1.456 1.458-2.271 3.435-2.267 5.495v.064.003 77.372zm30.056-69.696c17.723 0 24.038 16.328 24.038 31.609 0 14.943-7.36 31.155-23.521 31.437-3.399.06-9.791.105-14.925.135-.031-9.268-.076-24.414-.076-31.658 0-6.077-.026-21.911-.043-31.522h14.527z"/><path d="m345.616 242.425c-8.726 0-17.146-3.544-22.525-9.479-2.878-3.176-7.783-3.414-10.957-.539-3.174 2.877-3.416 7.782-.539 10.957 8.27 9.127 20.989 14.575 34.021 14.575 15.685 0 29.353-10.308 31.793-23.978 1.85-10.362-2.975-23.943-22.063-30.984-10.354-3.819-19.963-7.987-22.487-9.095-2.402-1.786-3.565-4.62-3.125-7.686.564-3.925 3.601-7.082 8.125-8.445 12.723-3.833 24.263 5.388 24.527 5.602 3.281 2.729 8.152 2.299 10.9-.971 2.756-3.279 2.333-8.173-.947-10.93-.726-.61-18.011-14.866-38.955-8.555-10.302 3.103-17.585 11.187-19.007 21.095-1.326 9.24 2.676 18.126 10.445 23.19.342.223.702.419 1.076.586.467.208 11.569 5.151 24.078 9.765 8.71 3.212 13.142 8.206 12.16 13.701-.982 5.502-7.43 11.191-16.52 11.191z"/></g></g></svg>