<svg id="Capa_1" enable-background="new 0 0 512 512" height="512" viewBox="0 0 512 512" width="512" xmlns="http://www.w3.org/2000/svg"><path d="m55.141 313.376h-41.35c-6.884 0-12.465-5.581-12.465-12.465v-97.258c0-6.884 5.581-12.465 12.465-12.465h41.35z" fill="#fb2b3a"/><path d="m77.12 326.636h76.656v147.036c0 21.168-17.16 38.328-38.328 38.328-21.168 0-38.328-17.16-38.328-38.328z" fill="#9c9c9c"/><path d="m448.766 297.29v-90.015c24.71 0 44.742 20.031 44.742 44.742v.532c0 24.709-20.032 44.741-44.742 44.741z" fill="#9c9c9c"/><path d="m493.51 252.016v.536c0 24.707-20.036 44.733-44.743 44.733v-16.19c19.397-4.898 33.74-22.459 33.74-43.372v-.526c0-6.661-1.454-12.982-4.063-18.664.67.598 1.32 1.206 1.959 1.846 8.096 8.095 13.107 19.284 13.107 31.637z" fill="#838383"/><path d="m177.05 331.29h-114.061c-5.758 0-10.425-4.668-10.425-10.425v-137.165c0-5.758 4.668-10.425 10.425-10.425h114.061z" fill="#5a5a5a"/><path d="m177.05 173.274v79.008 79.008l232.314 85.859v-164.867-164.867z" fill="#f3eae6"/><path d="m409.361 87.416v329.734l-232.308-85.864v-25.874l202.353 74.794c3.856 1.425 7.952-1.428 7.952-5.538v-279.121z" fill="#e1d3ce"/><path d="m440.253 440.615h-18.183c-7.017 0-12.706-5.689-12.706-12.706v-351.254c0-7.017 5.689-12.706 12.706-12.706h18.183c7.017 0 12.706 5.689 12.706 12.706v351.254c0 7.018-5.688 12.706-12.706 12.706z" fill="#fb2b3a"/><path d="m153.773 331.593v142.077c0 21.17-17.159 38.329-38.329 38.329-10.58 0-20.16-4.29-27.1-11.229-.124-.124-.247-.247-.361-.371 1.557.186 3.135.289 4.744.289 21.17 0 38.329-17.159 38.329-38.329v-130.766z" fill="#838383"/><g fill="#9c9c9c"><path d="m138.519 215.548h-47.424c-4.271 0-7.734-3.462-7.734-7.734s3.463-7.734 7.734-7.734h47.423c4.271 0 7.734 3.462 7.734 7.734s-3.462 7.734-7.733 7.734z"/><path d="m138.519 245.194h-47.424c-4.271 0-7.734-3.462-7.734-7.734s3.463-7.734 7.734-7.734h47.423c4.271 0 7.734 3.462 7.734 7.734s-3.462 7.734-7.733 7.734z"/><path d="m138.519 274.838h-47.424c-4.271 0-7.734-3.462-7.734-7.734s3.463-7.734 7.734-7.734h47.423c4.271 0 7.734 3.462 7.734 7.734s-3.462 7.734-7.733 7.734z"/><path d="m138.519 304.484h-47.424c-4.271 0-7.734-3.462-7.734-7.734s3.463-7.734 7.734-7.734h47.423c4.271 0 7.734 3.462 7.734 7.734s-3.462 7.734-7.733 7.734z"/></g><circle cx="430.13" cy="80.543" fill="#8ac9fe" r="80.543"/><path d="m474.311 63.764-33.768-33.76c-5.897-5.896-15.457-5.895-21.353.001l-33.023 33.023c-5.886 5.886-6.217 15.826-.736 22.09l.001.002c5.481 6.264 14.781 6.574 20.667.688l3.529-3.529c2.258-2.258 6.118-.659 6.118 2.534v35.589c0 8.34 6.761 15.101 15.101 15.101 8.34 0 15.101-6.761 15.101-15.101v-33.64c0-3.193 3.861-4.792 6.118-2.534l.892.892c5.897 5.897 15.458 5.897 21.355 0 5.897-5.897 5.896-15.459-.002-21.356z" fill="#fec165"/><path d="m478.733 74.445c0 3.86-1.472 7.731-4.416 10.675-5.899 5.899-15.462 5.899-21.361 0l-.895-.896c-2.254-2.254-6.115-.659-6.115 2.543v33.632c0 4.169-1.688 7.947-4.427 10.685-2.728 2.728-6.506 4.416-10.675 4.416-2.882 0-5.569-.803-7.865-2.203 4.118-2.553 6.856-7.124 6.856-12.333v-21.102c0-9.563-1.091-19.683 7.721-25.828 1.781-1.225 4.025-1.493 6.074-2.183 2.718-.916 4.416-3.047 5.116-5.528.679-2.388.422-5.106-.721-7.381-2.471-4.879-6.938-8.523-10.737-12.333-4.22-4.21-8.431-8.431-12.651-12.652-1.688-1.688-3.696-2.882-5.837-3.562l.391-.391c5.899-5.899 15.451-5.899 21.35 0l33.765 33.755c2.955 2.955 4.427 6.815 4.427 10.686z" fill="#fdb441"/></svg>